<svg width="275" height="216" viewBox="0 0 275 216" fill="none" xmlns="http://www.w3.org/2000/svg">
<g clip-path="url(#clip0_57_30)">
<path d="M48.7207 34.4048V41.5397L95.2028 82.2962L141.573 123.053L142.019 132.631L142.354 142.209L175.571 171.237L208.677 200.265L218.152 200.363C223.391 200.461 234.984 200.461 244.012 200.461L260.398 200.363V127.646V55.0275L244.57 41.1487L228.741 27.3677H218.486H208.12L207.897 76.432L207.562 125.594L172.784 95.2953L137.895 64.9967V57.1777V49.3587L125.299 38.3143L112.815 27.3677H80.712H48.7207V34.4048Z" fill="#F01616"/>
<path d="M180.475 31.4707C179.695 32.1549 179.138 35.2825 179.138 38.7033C179.138 46.5223 180.587 47.8906 188.724 47.8906C198.199 47.8906 199.202 47.1087 199.202 39.2897C199.202 35.3802 198.645 32.1549 197.864 31.4707C197.084 30.7866 193.406 30.2979 189.17 30.2979C184.934 30.2979 181.256 30.7866 180.475 31.4707ZM196.861 33.0345C198.087 34.9893 197.373 35.7901 196.593 40.7747L197.852 45.7674L189.727 45.9359C190.173 46.62 185.268 45.9359 189.727 45.9359C188.278 43.8834 196.18 46.6471 197.852 45.7674C198.632 45.2787 194.62 39.1213 197.852 39.1213C202.422 39.1213 195.969 31.6662 196.861 33.0345Z" fill="white"/>
<path d="M156.845 34.2093C156.845 35.4799 157.625 36.1641 159.074 36.1641C160.523 36.1641 161.303 35.4799 161.303 34.2093C161.303 32.9387 160.523 32.2546 159.074 32.2546C157.625 32.2546 156.845 32.9387 156.845 34.2093Z" fill="white"/>
<path d="M165.428 32.9387C163.644 34.4048 164.759 36.1641 167.434 36.1641C169.44 36.1641 170.221 35.6754 170.221 34.2093C170.221 32.2546 167.1 31.4727 165.428 32.9387Z" fill="white"/>
<path d="M156.845 42.0296C156.845 43.3979 157.625 43.9844 159.52 43.9844C161.638 43.9844 162.084 43.5934 161.638 42.0296C161.303 40.9545 160.077 40.0749 158.963 40.0749C157.625 40.0749 156.845 40.759 156.845 42.0296Z" fill="white"/>
<path d="M164.647 42.0296C164.647 43.4957 165.428 43.9844 167.434 43.9844C169.441 43.9844 170.221 43.4957 170.221 42.0296C170.221 40.5636 169.441 40.0749 167.434 40.0749C165.428 40.0749 164.647 40.5636 164.647 42.0296Z" fill="white"/>
<path d="M57.5476 154.473C57.3357 154.554 57.1768 158.715 57.1768 163.714L57.2297 172.793L68.9907 178.818L80.8047 184.843L84.0893 184.87L87.3739 184.897V186.465V188.059H82.7119H78.0499L75.9838 186.978L73.8647 185.897L65.6532 185.951L57.4416 186.032L57.3887 189.68C57.3887 191.679 57.4946 193.544 57.6006 193.814C57.7595 194.084 60.6733 195.759 64.1698 197.543L70.4741 200.785L89.8639 200.758C100.565 200.758 109.36 200.704 109.466 200.677C109.677 200.542 109.73 198.002 109.677 186.573L109.625 175.765L88.5924 165.011L67.5604 154.284H62.7394C60.0375 154.284 57.7065 154.365 57.5476 154.473Z" fill="white"/>
<path d="M88.8609 156.368C88.702 159.529 88.808 159.746 91.3509 161.015L93.6819 162.204L100.41 162.15L107.138 162.096L116.886 167.041L126.581 171.986V175.498V179.038L128.435 179.956L130.289 180.875L130.236 183.226L130.183 185.577L123.349 189.035L116.515 192.521V196.628V200.762H124.621H132.673L143.428 195.277L148.462 190.104V179.038V170.267L139.666 161.907L125.256 154.558H107.085H88.9669L88.8609 156.368Z" fill="white"/>
<path d="M117.621 181.143C117.25 181.386 117.039 182.25 117.144 183.385L117.303 185.223H121.542H125.78L125.939 183.385C126.151 181.008 125.727 180.764 121.542 180.764C119.317 180.764 118.045 180.899 117.621 181.143ZM124.614 181.359C125.303 181.548 125.515 181.926 125.515 183.007C125.515 183.791 125.25 184.574 124.879 184.763C124.508 184.952 123.025 185.088 121.542 185.088C120.058 185.088 118.575 184.952 118.204 184.763C117.197 184.25 117.409 181.656 118.416 181.359C119.581 181.035 123.396 181.035 124.614 181.359Z" fill="white"/>
<path d="M52.1455 191.8V197.609H53.7348H55.3242V191.8V185.991H53.7348H52.1455V191.8Z" fill="white"/>
</g>
<path d="M53.7867 66.6636L48.4862 44.9994L139.028 125.149L130.255 134.482L53.7867 66.6636Z" fill="#D9D9D9"/>
<path d="M139.537 129.785L139.49 134.063L139.419 140.387L132.728 135.646L136.044 132.042L137.799 130.183L138.851 129.067L139.537 129.785Z" fill="#D9D9D9"/>
<defs>
<clipPath id="clip0_57_30">
<rect width="243" height="216" fill="white" transform="translate(32)"/>
</clipPath>
</defs>
</svg>
